<mxfile host="app.diagrams.net" modified="2024-01-26T12:07:14.717Z" agent="Mozilla/5.0 (Windows NT 10.0; Win64; x64) AppleWebKit/537.36 (KHTML, like Gecko) Chrome/120.0.0.0 Safari/537.36 Edg/120.0.0.0" etag="BqDSx8n6dDNK6bLtg3bC" version="23.0.2" type="device">
  <diagram name="ページ1" id="q40Y4H6Cgm2v3x42ygtB">
    <mxGraphModel dx="1328" dy="712" grid="1" gridSize="10" guides="1" tooltips="1" connect="1" arrows="1" fold="1" page="1" pageScale="1" pageWidth="827" pageHeight="1169" math="0" shadow="0">
      <root>
        <mxCell id="0" />
        <mxCell id="1" parent="0" />
        <mxCell id="p3XjbXPdAwx0f5DoJ2kn-9" value="" style="swimlane;startSize=0;" parent="1" vertex="1">
          <mxGeometry x="70" y="230" width="500" height="280" as="geometry">
            <mxRectangle x="140" y="230" width="50" height="40" as="alternateBounds" />
          </mxGeometry>
        </mxCell>
        <mxCell id="p3XjbXPdAwx0f5DoJ2kn-55" value="" style="edgeStyle=orthogonalEdgeStyle;rounded=0;orthogonalLoop=1;jettySize=auto;html=1;" parent="p3XjbXPdAwx0f5DoJ2kn-9" source="p3XjbXPdAwx0f5DoJ2kn-8" target="p3XjbXPdAwx0f5DoJ2kn-12" edge="1">
          <mxGeometry relative="1" as="geometry" />
        </mxCell>
        <mxCell id="p3XjbXPdAwx0f5DoJ2kn-56" value="時刻, 人の位置" style="edgeLabel;html=1;align=center;verticalAlign=middle;resizable=0;points=[];" parent="p3XjbXPdAwx0f5DoJ2kn-55" vertex="1" connectable="0">
          <mxGeometry x="-0.0266" y="1" relative="1" as="geometry">
            <mxPoint as="offset" />
          </mxGeometry>
        </mxCell>
        <mxCell id="p3XjbXPdAwx0f5DoJ2kn-8" value="人位置取得" style="rounded=1;whiteSpace=wrap;html=1;" parent="p3XjbXPdAwx0f5DoJ2kn-9" vertex="1">
          <mxGeometry x="20" y="50" width="87" height="40" as="geometry" />
        </mxCell>
        <mxCell id="p3XjbXPdAwx0f5DoJ2kn-10" value="作成システム" style="text;html=1;align=center;verticalAlign=middle;resizable=0;points=[];autosize=1;strokeColor=none;fillColor=none;" parent="p3XjbXPdAwx0f5DoJ2kn-9" vertex="1">
          <mxGeometry x="-10" width="100" height="30" as="geometry" />
        </mxCell>
        <mxCell id="p3XjbXPdAwx0f5DoJ2kn-81" style="edgeStyle=orthogonalEdgeStyle;rounded=0;orthogonalLoop=1;jettySize=auto;html=1;exitX=0.5;exitY=1;exitDx=0;exitDy=0;entryX=0.5;entryY=0;entryDx=0;entryDy=0;" parent="p3XjbXPdAwx0f5DoJ2kn-9" source="p3XjbXPdAwx0f5DoJ2kn-12" target="p3XjbXPdAwx0f5DoJ2kn-15" edge="1">
          <mxGeometry relative="1" as="geometry" />
        </mxCell>
        <mxCell id="p3XjbXPdAwx0f5DoJ2kn-82" value="人の速度, 現在地" style="edgeLabel;html=1;align=center;verticalAlign=middle;resizable=0;points=[];" parent="p3XjbXPdAwx0f5DoJ2kn-81" vertex="1" connectable="0">
          <mxGeometry x="-0.0728" y="2" relative="1" as="geometry">
            <mxPoint x="-2" y="-4" as="offset" />
          </mxGeometry>
        </mxCell>
        <mxCell id="p3XjbXPdAwx0f5DoJ2kn-12" value="速度計算" style="rounded=1;whiteSpace=wrap;html=1;" parent="p3XjbXPdAwx0f5DoJ2kn-9" vertex="1">
          <mxGeometry x="195" y="50" width="90" height="40" as="geometry" />
        </mxCell>
        <mxCell id="bIlHzDKucDsJZEKpnLEK-25" style="edgeStyle=orthogonalEdgeStyle;rounded=0;orthogonalLoop=1;jettySize=auto;html=1;exitX=0;exitY=0.25;exitDx=0;exitDy=0;" parent="p3XjbXPdAwx0f5DoJ2kn-9" source="p3XjbXPdAwx0f5DoJ2kn-15" target="p3XjbXPdAwx0f5DoJ2kn-13" edge="1">
          <mxGeometry relative="1" as="geometry">
            <Array as="points">
              <mxPoint x="50" y="140" />
            </Array>
          </mxGeometry>
        </mxCell>
        <mxCell id="p3XjbXPdAwx0f5DoJ2kn-15" value="衝突計算" style="rounded=1;whiteSpace=wrap;html=1;" parent="p3XjbXPdAwx0f5DoJ2kn-9" vertex="1">
          <mxGeometry x="195" y="130" width="90" height="40" as="geometry" />
        </mxCell>
        <mxCell id="p3XjbXPdAwx0f5DoJ2kn-16" style="edgeStyle=orthogonalEdgeStyle;rounded=0;orthogonalLoop=1;jettySize=auto;html=1;exitX=0.5;exitY=1;exitDx=0;exitDy=0;" parent="p3XjbXPdAwx0f5DoJ2kn-9" source="p3XjbXPdAwx0f5DoJ2kn-15" target="p3XjbXPdAwx0f5DoJ2kn-15" edge="1">
          <mxGeometry relative="1" as="geometry" />
        </mxCell>
        <mxCell id="p3XjbXPdAwx0f5DoJ2kn-17" value="移動方法計算" style="rounded=1;whiteSpace=wrap;html=1;" parent="p3XjbXPdAwx0f5DoJ2kn-9" vertex="1">
          <mxGeometry x="380" y="55" width="90" height="40" as="geometry" />
        </mxCell>
        <mxCell id="p3XjbXPdAwx0f5DoJ2kn-30" value="" style="swimlane;startSize=0;" parent="p3XjbXPdAwx0f5DoJ2kn-9" vertex="1">
          <mxGeometry x="10" y="180" width="130" height="80" as="geometry" />
        </mxCell>
        <mxCell id="p3XjbXPdAwx0f5DoJ2kn-13" value="インターフェース" style="rounded=1;whiteSpace=wrap;html=1;" parent="p3XjbXPdAwx0f5DoJ2kn-30" vertex="1">
          <mxGeometry x="10" y="30" width="110" height="40" as="geometry" />
        </mxCell>
        <mxCell id="p3XjbXPdAwx0f5DoJ2kn-31" value="オペレータPC" style="text;html=1;align=center;verticalAlign=middle;resizable=0;points=[];autosize=1;strokeColor=none;fillColor=none;" parent="p3XjbXPdAwx0f5DoJ2kn-30" vertex="1">
          <mxGeometry x="-10" width="100" height="30" as="geometry" />
        </mxCell>
        <mxCell id="bIlHzDKucDsJZEKpnLEK-15" style="edgeStyle=orthogonalEdgeStyle;rounded=0;orthogonalLoop=1;jettySize=auto;html=1;exitX=1;exitY=0.5;exitDx=0;exitDy=0;entryX=0;entryY=0.5;entryDx=0;entryDy=0;" parent="p3XjbXPdAwx0f5DoJ2kn-9" source="MOEL_l4VxM4KasxD2j3D-2" target="MOEL_l4VxM4KasxD2j3D-3" edge="1">
          <mxGeometry relative="1" as="geometry" />
        </mxCell>
        <mxCell id="MOEL_l4VxM4KasxD2j3D-2" value="追従計算" style="rounded=1;whiteSpace=wrap;html=1;" parent="p3XjbXPdAwx0f5DoJ2kn-9" vertex="1">
          <mxGeometry x="195" y="170" width="90" height="40" as="geometry" />
        </mxCell>
        <mxCell id="MOEL_l4VxM4KasxD2j3D-3" value="セレクター" style="rounded=1;whiteSpace=wrap;html=1;" parent="p3XjbXPdAwx0f5DoJ2kn-9" vertex="1">
          <mxGeometry x="380" y="170" width="90" height="40" as="geometry" />
        </mxCell>
        <mxCell id="MOEL_l4VxM4KasxD2j3D-9" style="edgeStyle=orthogonalEdgeStyle;rounded=0;orthogonalLoop=1;jettySize=auto;html=1;entryX=0.505;entryY=1.076;entryDx=0;entryDy=0;entryPerimeter=0;" parent="p3XjbXPdAwx0f5DoJ2kn-9" source="MOEL_l4VxM4KasxD2j3D-3" target="p3XjbXPdAwx0f5DoJ2kn-17" edge="1">
          <mxGeometry relative="1" as="geometry" />
        </mxCell>
        <mxCell id="MOEL_l4VxM4KasxD2j3D-10" value="ゴールポーズ" style="edgeLabel;html=1;align=center;verticalAlign=middle;resizable=0;points=[];" parent="p3XjbXPdAwx0f5DoJ2kn-9" vertex="1" connectable="0">
          <mxGeometry x="449.9996043938072" y="125.0014836594828" as="geometry" />
        </mxCell>
        <mxCell id="MOEL_l4VxM4KasxD2j3D-14" value="回避計算" style="rounded=1;whiteSpace=wrap;html=1;" parent="p3XjbXPdAwx0f5DoJ2kn-9" vertex="1">
          <mxGeometry x="195" y="210" width="90" height="40" as="geometry" />
        </mxCell>
        <mxCell id="bIlHzDKucDsJZEKpnLEK-14" value="" style="endArrow=none;html=1;rounded=0;exitX=1;exitY=0.5;exitDx=0;exitDy=0;entryX=0;entryY=0.5;entryDx=0;entryDy=0;" parent="p3XjbXPdAwx0f5DoJ2kn-9" source="p3XjbXPdAwx0f5DoJ2kn-15" target="MOEL_l4VxM4KasxD2j3D-3" edge="1">
          <mxGeometry width="50" height="50" relative="1" as="geometry">
            <mxPoint x="355" y="375" as="sourcePoint" />
            <mxPoint x="475" y="415" as="targetPoint" />
            <Array as="points">
              <mxPoint x="330" y="150" />
              <mxPoint x="330" y="190" />
            </Array>
          </mxGeometry>
        </mxCell>
        <mxCell id="bIlHzDKucDsJZEKpnLEK-18" value="ゴールポーズ" style="edgeLabel;html=1;align=center;verticalAlign=middle;resizable=0;points=[];" parent="p3XjbXPdAwx0f5DoJ2kn-9" vertex="1" connectable="0">
          <mxGeometry x="349.9996043938072" y="180.0014836594828" as="geometry" />
        </mxCell>
        <mxCell id="bIlHzDKucDsJZEKpnLEK-19" style="edgeStyle=orthogonalEdgeStyle;rounded=0;orthogonalLoop=1;jettySize=auto;html=1;exitX=1;exitY=0.5;exitDx=0;exitDy=0;entryX=0;entryY=0.5;entryDx=0;entryDy=0;" parent="p3XjbXPdAwx0f5DoJ2kn-9" source="p3XjbXPdAwx0f5DoJ2kn-13" target="MOEL_l4VxM4KasxD2j3D-2" edge="1">
          <mxGeometry relative="1" as="geometry">
            <Array as="points">
              <mxPoint x="160" y="230" />
              <mxPoint x="160" y="190" />
            </Array>
          </mxGeometry>
        </mxCell>
        <mxCell id="bIlHzDKucDsJZEKpnLEK-22" style="edgeStyle=orthogonalEdgeStyle;rounded=0;orthogonalLoop=1;jettySize=auto;html=1;exitX=1;exitY=0.5;exitDx=0;exitDy=0;entryX=0;entryY=0.5;entryDx=0;entryDy=0;" parent="p3XjbXPdAwx0f5DoJ2kn-9" source="p3XjbXPdAwx0f5DoJ2kn-13" target="MOEL_l4VxM4KasxD2j3D-14" edge="1">
          <mxGeometry relative="1" as="geometry" />
        </mxCell>
        <mxCell id="bIlHzDKucDsJZEKpnLEK-23" style="edgeStyle=orthogonalEdgeStyle;rounded=0;orthogonalLoop=1;jettySize=auto;html=1;exitX=1;exitY=0.5;exitDx=0;exitDy=0;" parent="p3XjbXPdAwx0f5DoJ2kn-9" source="p3XjbXPdAwx0f5DoJ2kn-13" edge="1">
          <mxGeometry relative="1" as="geometry">
            <mxPoint x="195" y="155" as="targetPoint" />
            <Array as="points">
              <mxPoint x="160" y="230" />
              <mxPoint x="160" y="155" />
              <mxPoint x="195" y="155" />
            </Array>
          </mxGeometry>
        </mxCell>
        <mxCell id="bIlHzDKucDsJZEKpnLEK-24" value="ターゲットid" style="text;html=1;align=center;verticalAlign=middle;resizable=0;points=[];autosize=1;strokeColor=none;fillColor=none;" parent="p3XjbXPdAwx0f5DoJ2kn-9" vertex="1">
          <mxGeometry x="80" y="150" width="90" height="30" as="geometry" />
        </mxCell>
        <mxCell id="bIlHzDKucDsJZEKpnLEK-26" value="追いつけるかどうか" style="text;html=1;align=center;verticalAlign=middle;resizable=0;points=[];autosize=1;strokeColor=none;fillColor=none;" parent="p3XjbXPdAwx0f5DoJ2kn-9" vertex="1">
          <mxGeometry y="110" width="130" height="30" as="geometry" />
        </mxCell>
        <mxCell id="p3XjbXPdAwx0f5DoJ2kn-47" value="Robot" style="text;html=1;align=center;verticalAlign=middle;resizable=0;points=[];autosize=1;strokeColor=none;fillColor=none;" parent="1" vertex="1">
          <mxGeometry x="465" y="180" width="60" height="30" as="geometry" />
        </mxCell>
        <mxCell id="p3XjbXPdAwx0f5DoJ2kn-50" value="" style="endArrow=classic;html=1;rounded=0;entryX=0.131;entryY=1.125;entryDx=0;entryDy=0;entryPerimeter=0;exitX=0.5;exitY=0;exitDx=0;exitDy=0;" parent="1" target="p3XjbXPdAwx0f5DoJ2kn-13" edge="1">
          <mxGeometry width="50" height="50" relative="1" as="geometry">
            <mxPoint x="104.72000000000003" y="560" as="sourcePoint" />
            <mxPoint x="124.40000000000006" y="485.00000000000006" as="targetPoint" />
            <Array as="points">
              <mxPoint x="104" y="560" />
            </Array>
          </mxGeometry>
        </mxCell>
        <mxCell id="Nd3Fw-M418ChdoNBlOCp-1" value="クリックした場所" style="edgeLabel;html=1;align=center;verticalAlign=middle;resizable=0;points=[];" vertex="1" connectable="0" parent="p3XjbXPdAwx0f5DoJ2kn-50">
          <mxGeometry x="-0.195" y="1" relative="1" as="geometry">
            <mxPoint x="17" as="offset" />
          </mxGeometry>
        </mxCell>
        <mxCell id="p3XjbXPdAwx0f5DoJ2kn-79" style="edgeStyle=orthogonalEdgeStyle;rounded=0;orthogonalLoop=1;jettySize=auto;html=1;exitX=0.5;exitY=0;exitDx=0;exitDy=0;" parent="1" source="p3XjbXPdAwx0f5DoJ2kn-17" target="p3XjbXPdAwx0f5DoJ2kn-47" edge="1">
          <mxGeometry relative="1" as="geometry">
            <mxPoint x="495" y="210" as="targetPoint" />
          </mxGeometry>
        </mxCell>
        <mxCell id="870sRw7pD7z9VvGSY5oI-3" style="edgeStyle=orthogonalEdgeStyle;rounded=0;orthogonalLoop=1;jettySize=auto;html=1;entryX=0.75;entryY=0;entryDx=0;entryDy=0;exitX=-0.019;exitY=0.64;exitDx=0;exitDy=0;exitPerimeter=0;" parent="1" target="p3XjbXPdAwx0f5DoJ2kn-8" edge="1" source="p3XjbXPdAwx0f5DoJ2kn-47">
          <mxGeometry relative="1" as="geometry">
            <mxPoint x="460" y="180" as="sourcePoint" />
            <mxPoint x="155.25" y="285" as="targetPoint" />
            <Array as="points">
              <mxPoint x="460" y="199" />
              <mxPoint x="400" y="200" />
              <mxPoint x="400" y="250" />
              <mxPoint x="155" y="250" />
            </Array>
          </mxGeometry>
        </mxCell>
        <mxCell id="870sRw7pD7z9VvGSY5oI-4" value="センサーデータ" style="edgeLabel;html=1;align=center;verticalAlign=middle;resizable=0;points=[];" parent="870sRw7pD7z9VvGSY5oI-3" vertex="1" connectable="0">
          <mxGeometry x="0.4241" y="-1" relative="1" as="geometry">
            <mxPoint as="offset" />
          </mxGeometry>
        </mxCell>
        <mxCell id="870sRw7pD7z9VvGSY5oI-5" value="" style="endArrow=classic;html=1;rounded=0;entryX=0;entryY=0.5;entryDx=0;entryDy=0;" parent="1" edge="1">
          <mxGeometry width="50" height="50" relative="1" as="geometry">
            <mxPoint x="60" y="180" as="sourcePoint" />
            <mxPoint x="90" y="294.86" as="targetPoint" />
            <Array as="points">
              <mxPoint x="60" y="295" />
            </Array>
          </mxGeometry>
        </mxCell>
        <mxCell id="870sRw7pD7z9VvGSY5oI-6" value="マップデータ" style="edgeLabel;html=1;align=center;verticalAlign=middle;resizable=0;points=[];" parent="870sRw7pD7z9VvGSY5oI-5" vertex="1" connectable="0">
          <mxGeometry x="-0.143" relative="1" as="geometry">
            <mxPoint x="-10" y="24" as="offset" />
          </mxGeometry>
        </mxCell>
        <mxCell id="-ZtRT_XqycCp_QkjvWYs-4" value="場所A" style="text;html=1;align=center;verticalAlign=middle;resizable=0;points=[];autosize=1;strokeColor=none;fillColor=none;" parent="1" vertex="1">
          <mxGeometry x="295" y="520" width="60" height="30" as="geometry" />
        </mxCell>
        <mxCell id="bIlHzDKucDsJZEKpnLEK-6" value="オペレータ" style="text;html=1;align=center;verticalAlign=middle;resizable=0;points=[];autosize=1;strokeColor=none;fillColor=none;" parent="1" vertex="1">
          <mxGeometry x="70" y="555" width="80" height="30" as="geometry" />
        </mxCell>
        <mxCell id="bIlHzDKucDsJZEKpnLEK-17" value="" style="endArrow=none;html=1;rounded=0;exitX=1;exitY=0.5;exitDx=0;exitDy=0;" parent="1" source="MOEL_l4VxM4KasxD2j3D-14" edge="1">
          <mxGeometry width="50" height="50" relative="1" as="geometry">
            <mxPoint x="355" y="455" as="sourcePoint" />
            <mxPoint x="400" y="410" as="targetPoint" />
            <Array as="points">
              <mxPoint x="400" y="460" />
            </Array>
          </mxGeometry>
        </mxCell>
      </root>
    </mxGraphModel>
  </diagram>
</mxfile>
